<svg width="546" height="202" viewBox="0 0 546 202" fill="none" xmlns="http://www.w3.org/2000/svg">
<g clip-path="url(#clip0_401_2)">
<mask id="mask0_401_2" style="mask-type:alpha" maskUnits="userSpaceOnUse" x="0" y="0" width="546" height="452">
<rect width="546" height="452" rx="11" fill="#C4C4C4"/>
</mask>
<g mask="url(#mask0_401_2)">
<path d="M66.3882 60H45V103.758C45 115.146 50.6479 125.772 60.0773 132.142C69.5068 138.513 81.4655 139.767 92 135.512V103.758C92 110.842 86.2785 116.573 79.2064 116.573C72.1343 116.573 66.4128 110.842 66.4128 103.758L66.3882 60Z" fill="#EB2188"/>
<path d="M113 60H92V104.04V136C104.682 130.727 112.976 118.102 113 104.04V60Z" fill="#FFF748"/>
<path d="M149 14H127V138H149V133.815C135.512 127.193 127 113.727 127 99.0054C127 84.2839 135.512 70.818 149 64.1958V14" fill="#FFF748"/>
<path d="M166.397 60C160.354 60 154.409 61.4276 149 64.1844V133.819C163.254 141.08 180.456 138.742 192.298 127.911C204.14 117.081 208.16 100.023 202.41 84.9837C196.684 69.9442 182.357 60 166.397 60ZM166.397 116.564C156.797 116.564 149 108.712 149 98.9892C149 89.2665 156.773 81.4145 166.397 81.4145C176.022 81.4145 183.794 89.2665 183.794 98.9892C183.77 108.712 175.997 116.564 166.397 116.564Z" fill="#CCF381"/>
<path d="M149 64C135.512 70.6584 127 84.198 127 99C127 113.802 135.512 127.342 149 134V64" fill="#FFF748" fill-opacity="0.6"/>
<path d="M239.388 60H218V103.758C218 115.146 223.648 125.772 233.077 132.142C242.507 138.513 254.466 139.767 265 135.512V103.758C265 110.842 259.278 116.573 252.206 116.573C245.134 116.573 239.413 110.842 239.413 103.758L239.388 60Z" fill="#CCF381"/>
<path d="M286 60H265V104.04V136C277.682 130.727 285.976 118.102 286 104.04V60Z" fill="#15BCF1"/>
<path d="M322 60H301V138V94.2403C301.024 80.2933 309.318 67.7238 322 62.4844V60Z" fill="#4830D4"/>
<path d="M334.8 60C330.402 60 326.054 60.8364 322 62.4844V94.2403C322 87.1561 327.724 81.4248 334.8 81.4248C341.876 81.4248 347.601 87.1561 347.601 94.2403V138H369V94.2403C369 75.3491 353.694 60.0246 334.8 60Z" fill="#4830D4"/>
<path d="M322 62C309.318 67.273 301.024 79.8984 301 93.9596V138H322V62Z" fill="#15BCF1"/>
<path d="M407.657 14H386V59.9643H407.657V14ZM407.657 81.3945H386V117.013C386.025 128.59 395.498 138 407.184 138H418V116.545H407.632V81.3945" fill="#4830D4"/>
<path d="M418 60H407.717V82H418V60ZM386.239 60H380V82H386.239V60Z" fill="#DF00FF"/>
<path d="M408 60H386V82H408V60Z" fill="#DF00FF"/>
<path d="M408 60H386V82H408V60Z" fill="#4830D4" fill-opacity="0.6"/>
<path d="M451.388 60H430V103.758C430 115.146 435.648 125.772 445.077 132.142C454.507 138.513 466.466 139.767 477 135.512V103.758C477 110.842 471.278 116.573 464.206 116.573C457.134 116.573 451.413 110.842 451.413 103.758L451.388 60Z" fill="#DF00FF"/>
<path d="M499 60H477V104.04V136C490.286 130.727 498.975 118.102 499 104.04V60Z" fill="#F96167"/>
<path d="M266 170.398C266 169.085 266.209 167.863 266.628 166.731C267.047 165.577 267.629 164.581 268.373 163.744C269.141 162.906 270.048 162.25 271.095 161.775C272.165 161.299 273.329 161.062 274.585 161.062C275.632 161.062 276.574 161.243 277.412 161.605C278.273 161.944 279.017 162.374 279.645 162.895V161.469H282.507V174.846C282.507 175.706 282.716 176.272 283.135 176.543C283.577 176.792 284.054 176.917 284.566 176.917L283.903 179.293C281.669 179.293 280.32 178.41 279.855 176.645C279.576 177.007 279.25 177.369 278.878 177.731C278.529 178.071 278.121 178.377 277.656 178.648C277.191 178.92 276.667 179.135 276.086 179.293C275.504 179.452 274.864 179.531 274.166 179.531C273.026 179.531 271.956 179.316 270.956 178.886C269.978 178.456 269.118 177.845 268.373 177.052C267.652 176.26 267.07 175.31 266.628 174.201C266.209 173.069 266 171.801 266 170.398ZM274.864 176.815C275.748 176.815 276.586 176.611 277.377 176.204C278.168 175.796 278.831 175.264 279.366 174.608V165.136C278.738 164.706 278.04 164.366 277.272 164.117C276.528 163.846 275.737 163.71 274.899 163.71C274.062 163.71 273.294 163.868 272.596 164.185C271.898 164.502 271.293 164.955 270.781 165.543C270.293 166.109 269.909 166.799 269.629 167.614C269.35 168.429 269.211 169.323 269.211 170.296C269.211 171.247 269.35 172.13 269.629 172.944C269.909 173.737 270.304 174.427 270.816 175.015C271.328 175.581 271.921 176.023 272.596 176.34C273.294 176.656 274.05 176.815 274.864 176.815Z" fill="white"/>
<path d="M295.609 161.062C296.656 161.062 297.586 161.231 298.401 161.571C299.238 161.91 299.959 162.329 300.564 162.827V161.469H303.426V178.716C303.426 180.187 303.228 181.443 302.833 182.485C302.437 183.526 301.867 184.374 301.123 185.031C300.401 185.71 299.529 186.208 298.505 186.525C297.482 186.842 296.342 187 295.085 187C293.992 187 292.945 186.876 291.944 186.627C290.944 186.378 290.048 186.004 289.257 185.506L290.409 182.858C290.967 183.288 291.619 183.639 292.363 183.91C293.108 184.205 294.015 184.352 295.085 184.352C296.737 184.352 298.028 183.933 298.959 183.096C299.913 182.258 300.39 180.9 300.39 179.022V176.849C299.925 177.392 299.25 177.913 298.366 178.41C297.505 178.886 296.47 179.123 295.26 179.123C294.236 179.123 293.236 178.931 292.258 178.546C291.281 178.139 290.42 177.562 289.676 176.815C288.931 176.045 288.327 175.117 287.861 174.031C287.419 172.922 287.198 171.654 287.198 170.228C287.198 168.916 287.419 167.705 287.861 166.596C288.303 165.464 288.897 164.491 289.641 163.676C290.409 162.861 291.305 162.227 292.328 161.775C293.352 161.299 294.445 161.062 295.609 161.062ZM295.958 176.407C296.888 176.407 297.726 176.204 298.47 175.796C299.215 175.389 299.82 174.914 300.285 174.37V165.136C299.75 164.774 299.134 164.445 298.436 164.151C297.738 163.857 296.9 163.71 295.923 163.71C295.202 163.71 294.504 163.857 293.829 164.151C293.177 164.423 292.596 164.83 292.084 165.373C291.572 165.917 291.165 166.584 290.863 167.377C290.56 168.146 290.409 169.04 290.409 170.059C290.409 171.032 290.56 171.915 290.863 172.707C291.165 173.476 291.572 174.144 292.084 174.71C292.596 175.253 293.177 175.672 293.829 175.966C294.504 176.26 295.213 176.407 295.958 176.407Z" fill="white"/>
<path d="M310.823 171.552C311.033 173.205 311.626 174.495 312.603 175.423C313.58 176.351 314.871 176.815 316.477 176.815C317.524 176.815 318.466 176.713 319.304 176.509C320.141 176.283 320.944 176 321.712 175.66L322.444 178.275C321.607 178.659 320.665 178.965 319.618 179.191C318.571 179.418 317.396 179.531 316.093 179.531C314.79 179.531 313.615 179.327 312.568 178.92C311.521 178.49 310.625 177.89 309.881 177.12C309.16 176.328 308.601 175.366 308.206 174.235C307.81 173.08 307.613 171.767 307.613 170.296C307.613 168.984 307.81 167.761 308.206 166.63C308.601 165.498 309.16 164.525 309.881 163.71C310.602 162.872 311.463 162.227 312.463 161.775C313.464 161.299 314.581 161.062 315.814 161.062C317.117 161.062 318.257 161.277 319.234 161.707C320.211 162.137 321.025 162.725 321.677 163.472C322.328 164.219 322.817 165.091 323.142 166.086C323.468 167.082 323.631 168.135 323.631 169.244C323.631 170.036 323.596 170.806 323.526 171.552H310.823ZM315.744 163.71C314.371 163.71 313.243 164.163 312.359 165.068C311.498 165.973 310.974 167.309 310.788 169.074H320.734C320.734 167.354 320.292 166.03 319.408 165.102C318.524 164.174 317.303 163.71 315.744 163.71ZM311.382 159.704L309.741 157.191L314.837 154H317.07L322.165 157.191L320.525 159.704L315.953 156.139L311.382 159.704Z" fill="white"/>
<path d="M330.853 164.423C331.505 163.472 332.33 162.68 333.331 162.046C334.355 161.39 335.564 161.062 336.96 161.062C339.008 161.062 340.532 161.662 341.532 162.861C342.556 164.061 343.068 165.645 343.068 167.614V179.123H339.927V167.954C339.927 166.664 339.624 165.645 339.019 164.898C338.414 164.129 337.554 163.744 336.437 163.744C335.902 163.744 335.378 163.846 334.866 164.049C334.355 164.23 333.854 164.491 333.366 164.83C332.9 165.17 332.458 165.566 332.04 166.019C331.644 166.471 331.283 166.947 330.958 167.444V179.123H327.817V161.469H330.853V164.423Z" fill="white"/>
<path d="M360.056 164.694C359.381 164.378 358.753 164.151 358.172 164.015C357.59 163.857 356.939 163.778 356.217 163.778C355.403 163.778 354.635 163.925 353.914 164.219C353.216 164.513 352.611 164.943 352.099 165.509C351.587 166.052 351.18 166.72 350.878 167.512C350.599 168.305 350.459 169.21 350.459 170.228C350.459 171.156 350.587 172.016 350.843 172.809C351.122 173.601 351.506 174.302 351.995 174.914C352.483 175.502 353.065 175.966 353.739 176.306C354.414 176.645 355.17 176.815 356.008 176.815C356.892 176.815 357.648 176.724 358.276 176.543C358.904 176.362 359.579 176.079 360.3 175.694L361.278 178.275C360.533 178.659 359.719 178.965 358.835 179.191C357.951 179.418 356.939 179.531 355.798 179.531C354.496 179.531 353.321 179.305 352.274 178.852C351.227 178.399 350.331 177.765 349.587 176.951C348.842 176.136 348.26 175.163 347.842 174.031C347.446 172.899 347.248 171.654 347.248 170.296C347.248 169.029 347.446 167.841 347.842 166.731C348.26 165.6 348.854 164.615 349.621 163.778C350.389 162.94 351.308 162.284 352.378 161.809C353.472 161.311 354.693 161.062 356.043 161.062C357.09 161.062 357.997 161.152 358.765 161.333C359.533 161.514 360.277 161.775 360.998 162.114L360.056 164.694Z" fill="white"/>
<path d="M368.072 179.123H364.931V161.469H368.072V179.123ZM366.501 158.448C365.896 158.448 365.373 158.244 364.931 157.836C364.512 157.406 364.303 156.897 364.303 156.309C364.303 155.652 364.5 155.132 364.896 154.747C365.291 154.362 365.826 154.17 366.501 154.17C367.106 154.17 367.618 154.385 368.037 154.815C368.479 155.222 368.7 155.72 368.7 156.309C368.7 156.965 368.502 157.486 368.107 157.87C367.711 158.255 367.176 158.448 366.501 158.448Z" fill="white"/>
<path d="M372.434 170.398C372.434 169.085 372.643 167.863 373.062 166.731C373.481 165.577 374.063 164.581 374.807 163.744C375.575 162.906 376.482 162.25 377.529 161.775C378.599 161.299 379.763 161.062 381.019 161.062C382.066 161.062 383.008 161.243 383.846 161.605C384.707 161.944 385.451 162.374 386.079 162.895V161.469H388.941V174.846C388.941 175.706 389.15 176.272 389.569 176.543C390.011 176.792 390.488 176.917 391 176.917L390.337 179.293C388.103 179.293 386.754 178.41 386.289 176.645C386.009 177.007 385.684 177.369 385.312 177.731C384.963 178.071 384.555 178.377 384.09 178.648C383.625 178.92 383.101 179.135 382.52 179.293C381.938 179.452 381.298 179.531 380.6 179.531C379.46 179.531 378.39 179.316 377.39 178.886C376.412 178.456 375.552 177.845 374.807 177.052C374.086 176.26 373.504 175.31 373.062 174.201C372.643 173.069 372.434 171.801 372.434 170.398ZM381.298 176.815C382.182 176.815 383.02 176.611 383.811 176.204C384.602 175.796 385.265 175.264 385.8 174.608V165.136C385.172 164.706 384.474 164.366 383.706 164.117C382.962 163.846 382.171 163.71 381.333 163.71C380.496 163.71 379.728 163.868 379.03 164.185C378.332 164.502 377.727 164.955 377.215 165.543C376.726 166.109 376.343 166.799 376.063 167.614C375.784 168.429 375.645 169.323 375.645 170.296C375.645 171.247 375.784 172.13 376.063 172.944C376.343 173.737 376.738 174.427 377.25 175.015C377.762 175.581 378.355 176.023 379.03 176.34C379.728 176.656 380.484 176.815 381.298 176.815Z" fill="white"/>
<path fill-rule="evenodd" clip-rule="evenodd" d="M412.225 152.784H407.603V161.42C407.312 161.224 406.997 161.033 406.659 160.847C405.667 160.285 404.504 160.021 403.198 160.021C401.993 160.021 400.846 160.292 399.768 160.831C398.702 161.363 397.767 162.098 396.963 163.028L396.962 163.029C396.177 163.94 395.555 165.029 395.088 166.282L395.085 166.29C394.636 167.539 394.415 168.89 394.415 170.335C394.415 171.846 394.634 173.232 395.085 174.485L395.087 174.49C395.533 175.703 396.146 176.761 396.934 177.65L396.942 177.658C397.75 178.543 398.69 179.23 399.76 179.714L399.766 179.716C400.86 180.2 402.018 180.441 403.233 180.441C404.726 180.441 406.025 180.13 407.08 179.453L407.092 179.446C407.667 179.062 408.179 178.648 408.625 178.2C408.923 178.686 409.314 179.095 409.801 179.414C410.632 179.959 411.677 180.197 412.872 180.197H413.442L414.508 176.271H413.533C413.163 176.271 412.825 176.182 412.506 176.003C412.409 175.928 412.225 175.674 412.225 174.894V152.784ZM493.798 152.784H489.175V173.606C489.175 174.756 489.322 175.775 489.638 176.645L489.641 176.654L489.645 176.663C489.979 177.513 490.441 178.235 491.041 178.808C491.63 179.37 492.315 179.786 493.088 180.052L493.095 180.055C493.875 180.315 494.709 180.441 495.593 180.441C496.379 180.441 497.109 180.367 497.775 180.214C498.431 180.068 499.003 179.893 499.479 179.681L500.08 179.414L498.884 175.445L498.117 175.774C497.834 175.896 497.501 176.011 497.117 176.118C496.76 176.196 496.391 176.236 496.01 176.236C495.264 176.236 494.751 176.003 494.382 175.589C494.039 175.179 493.798 174.461 493.798 173.293V152.784ZM419.284 152.958C418.457 152.958 417.718 153.205 417.156 153.768C416.594 154.33 416.346 155.069 416.346 155.895C416.346 156.691 416.629 157.396 417.177 157.974L417.19 157.989L417.205 158.002C417.783 158.55 418.488 158.833 419.284 158.833C420.111 158.833 420.849 158.585 421.411 158.023C421.974 157.461 422.221 156.722 422.221 155.895C422.221 155.093 421.921 154.392 421.342 153.837C420.787 153.258 420.086 152.958 419.284 152.958ZM448.336 152.958C447.51 152.958 446.771 153.205 446.209 153.768C445.646 154.33 445.399 155.069 445.399 155.895C445.399 156.691 445.682 157.396 446.229 157.974L446.243 157.989L446.258 158.002C446.836 158.55 447.541 158.833 448.336 158.833C449.163 158.833 449.902 158.585 450.464 158.023C451.026 157.461 451.274 156.722 451.274 155.895C451.274 155.093 450.974 154.392 450.395 153.837C449.84 153.258 449.139 152.958 448.336 152.958ZM460.043 155.393H456.232L455.571 161.1H452.288V165.305H455.42V173.049C455.42 175.311 455.942 177.161 457.101 178.482L457.107 178.489C458.289 179.805 459.883 180.441 461.802 180.441C462.739 180.441 463.644 180.289 464.511 179.984C465.325 179.721 466.006 179.434 466.535 179.117L467.055 178.805L465.696 174.893L464.922 175.319C464.493 175.555 464.041 175.76 463.566 175.933C463.142 176.087 462.684 176.166 462.185 176.166C461.875 176.166 461.577 176.122 461.288 176.035C461.056 175.938 460.855 175.797 460.682 175.608C460.514 175.425 460.353 175.155 460.215 174.768C460.106 174.397 460.043 173.91 460.043 173.293V165.305H465.053V161.1H460.043V155.393ZM437.78 160.439V161.152C437.428 160.95 437.054 160.767 436.658 160.602C435.739 160.209 434.71 160.021 433.585 160.021C432.319 160.021 431.121 160.287 429.999 160.822C428.889 161.327 427.916 162.036 427.085 162.942L427.077 162.951C426.269 163.86 425.633 164.937 425.164 166.171C424.687 167.402 424.453 168.734 424.453 170.161C424.453 171.697 424.685 173.09 425.165 174.328L425.168 174.337L425.172 174.345C425.666 175.532 426.316 176.562 427.126 177.423L427.134 177.431C427.945 178.267 428.885 178.915 429.95 179.372L429.964 179.377C431.025 179.807 432.117 180.023 433.237 180.023C434.543 180.023 435.709 179.759 436.701 179.196L436.707 179.192C437.028 179.006 437.329 178.814 437.606 178.616V179.173C437.606 180.994 437.155 182.137 436.425 182.795L436.419 182.802C435.666 183.498 434.58 183.891 433.063 183.891C432.062 183.891 431.258 183.749 430.629 183.493L430.62 183.489L430.61 183.486C429.932 183.232 429.352 182.908 428.863 182.521L428.095 181.913L426.321 186.105L426.847 186.445C427.709 187.004 428.678 187.417 429.746 187.69C430.808 187.961 431.914 188.096 433.063 188.096C434.379 188.096 435.594 187.925 436.699 187.574C437.817 187.218 438.786 186.654 439.592 185.877C440.43 185.114 441.058 184.141 441.487 182.981C441.92 181.809 442.124 180.429 442.124 178.86V160.439H437.78ZM480.261 160.439V161.215C479.888 161 479.491 160.808 479.071 160.637C478.131 160.221 477.09 160.021 475.961 160.021C474.609 160.021 473.343 160.285 472.172 160.819L472.167 160.822C471.031 161.352 470.044 162.085 469.211 163.019L469.204 163.028C468.395 163.963 467.771 165.067 467.326 166.327C466.877 167.575 466.656 168.913 466.656 170.335C466.656 171.846 466.875 173.232 467.327 174.485L467.33 174.494L467.333 174.502C467.802 175.711 468.425 176.764 469.21 177.65L469.218 177.658C470.026 178.543 470.966 179.23 472.035 179.714L472.041 179.716C473.138 180.201 474.308 180.441 475.544 180.441C476.297 180.441 477.004 180.353 477.659 180.17C478.296 179.992 478.88 179.746 479.407 179.43C479.918 179.123 480.373 178.774 480.769 178.378C480.844 178.303 480.918 178.227 480.991 178.151C481.283 178.647 481.67 179.065 482.157 179.392C482.99 179.953 484.044 180.197 485.252 180.197H485.822L486.888 176.271H485.913C485.544 176.271 485.205 176.182 484.886 176.003C484.789 175.928 484.606 175.674 484.606 174.894V160.439H480.261ZM421.595 160.439H416.972V180.023H421.595V160.439ZM450.648 160.439H446.025V180.023H450.648V160.439ZM400.438 165.898C400.861 165.374 401.359 164.967 401.936 164.667C402.52 164.376 403.168 164.226 403.894 164.226C404.738 164.226 405.467 164.435 406.104 164.841L406.115 164.848L406.126 164.854C406.757 165.225 407.243 165.615 407.603 166.015V174.443C407.167 174.924 406.642 175.329 406.02 175.659C405.36 175.998 404.667 176.166 403.929 176.166C403.252 176.166 402.622 176.029 402.031 175.755C401.453 175.454 400.942 175.054 400.498 174.552C400.075 174.026 399.736 173.401 399.485 172.668C399.236 171.944 399.108 171.134 399.108 170.231C399.108 169.347 399.226 168.542 399.456 167.81L399.458 167.805C399.688 167.049 400.018 166.418 400.438 165.898ZM432.115 164.613C432.694 164.354 433.286 164.226 433.898 164.226C434.798 164.226 435.527 164.366 436.107 164.617C436.625 164.842 437.09 165.084 437.502 165.343V174.125C437.128 174.524 436.655 174.89 436.072 175.218C435.451 175.567 434.744 175.749 433.933 175.749C433.296 175.749 432.694 175.62 432.119 175.363C431.568 175.107 431.07 174.74 430.625 174.256C430.182 173.751 429.822 173.148 429.55 172.439C429.285 171.722 429.146 170.908 429.146 169.988C429.146 169.014 429.286 168.191 429.549 167.505L429.551 167.498C429.824 166.764 430.183 166.166 430.62 165.69C431.064 165.205 431.558 164.852 432.104 164.619L432.115 164.613ZM474.293 164.644C474.882 164.369 475.539 164.226 476.275 164.226C477.025 164.226 477.725 164.351 478.379 164.596L478.392 164.601L478.405 164.606C478.977 164.796 479.502 165.042 479.983 165.342V174.381C479.546 174.882 479.019 175.297 478.396 175.626C477.714 175.988 476.998 176.166 476.24 176.166C475.532 176.166 474.888 176.026 474.298 175.751C473.722 175.472 473.213 175.084 472.768 174.58C472.325 174.056 471.977 173.434 471.727 172.706C471.477 171.956 471.349 171.133 471.349 170.231C471.349 169.303 471.478 168.468 471.728 167.718C471.981 166.958 472.322 166.337 472.739 165.84C473.182 165.317 473.699 164.921 474.293 164.644Z" fill="white"/>
</g>
</g>
<defs>
<clipPath id="clip0_401_2">
<rect width="546" height="202" fill="white"/>
</clipPath>
</defs>
</svg>
